<svg xmlns="http://www.w3.org/2000/svg" viewBox="0 0 512 512" width="512" height="512">
<defs>
<clipPath id="tc"><rect width="512" height="512" rx="116"/></clipPath>
<radialGradient id="bg" cx="50%" cy="50%" r="60%"><stop offset="0" stop-color="#2A0F08"/><stop offset="1" stop-color="#0D0A0F"/></radialGradient>
<linearGradient id="gt" x1="256.0" y1="62.0" x2="256.0" y2="262.0" gradientUnits="userSpaceOnUse"><stop offset="0" stop-color="#5C5A6A"/><stop offset="1" stop-color="#474553"/></linearGradient>
<linearGradient id="gl" x1="82.8" y1="162.0" x2="256.0" y2="462.0" gradientUnits="userSpaceOnUse"><stop offset="0" stop-color="#3D3B47"/><stop offset="1" stop-color="#2E2C36"/></linearGradient>
<linearGradient id="gr" x1="256.0" y1="262.0" x2="429.2" y2="362.0" gradientUnits="userSpaceOnUse"><stop offset="0" stop-color="#2A2830"/><stop offset="1" stop-color="#1E1D23"/></linearGradient>
<linearGradient id="sa" x1="256.0" y1="262.0" x2="376.0" y2="172.0" gradientUnits="userSpaceOnUse"><stop offset="0" stop-color="#FF4A1C" stop-opacity="0.55"/><stop offset="0.35" stop-color="#FF4A1C" stop-opacity="0.16"/><stop offset="1" stop-color="#FF4A1C" stop-opacity="0"/></linearGradient>
<linearGradient id="sb" x1="256.0" y1="262.0" x2="136.0" y2="352.0" gradientUnits="userSpaceOnUse"><stop offset="0" stop-color="#FF4A1C" stop-opacity="0.55"/><stop offset="0.35" stop-color="#FF4A1C" stop-opacity="0.16"/><stop offset="1" stop-color="#FF4A1C" stop-opacity="0"/></linearGradient>
<radialGradient id="cg" cx="256.0" cy="262.0" r="190.0" gradientUnits="userSpaceOnUse"><stop offset="0" stop-color="#FFFFFF"/><stop offset="0.14" stop-color="#FFD6BF"/><stop offset="0.55" stop-color="#FF4A1C"/><stop offset="1" stop-color="#C21E00"/></radialGradient>
<linearGradient id="rimg" x1="0" y1="42.0" x2="0" y2="482.0" gradientUnits="userSpaceOnUse"><stop offset="0" stop-color="#FF7445"/><stop offset="0.55" stop-color="#FF7445" stop-opacity="0.8"/><stop offset="1" stop-color="#FF7445" stop-opacity="0.35"/></linearGradient>
<filter id="b44" x="-60%" y="-60%" width="220%" height="220%"><feGaussianBlur stdDeviation="44"/></filter>
<filter id="b20" x="-60%" y="-60%" width="220%" height="220%"><feGaussianBlur stdDeviation="20"/></filter>
<filter id="b8" x="-60%" y="-60%" width="220%" height="220%"><feGaussianBlur stdDeviation="8"/></filter>
<filter id="b3" x="-60%" y="-60%" width="220%" height="220%"><feGaussianBlur stdDeviation="3"/></filter>
</defs>
<g>
<polygon points="192.4,212.2 242.0,245.0 241.2,300.6 295.2,322.6 338.4,389.0 373.4,368.8 314.4,278.2 260.4,256.2 261.2,200.6 211.6,167.8 182.9,129.6 146.3,150.7" fill="#FF4A1C" opacity="0.9" filter="url(#b20)"/>

<polygon points="192.4,212.2 242.0,245.0 241.2,300.6 295.2,322.6 338.4,389.0 373.4,368.8 314.4,278.2 260.4,256.2 261.2,200.6 211.6,167.8 182.9,129.6 146.3,150.7" fill="url(#cg)"/>

<polygon points="265.6,239.8 260.7,237.0 260.4,256.2 265.6,258.3" fill="url(#gl)"/>

<polygon points="438.8,339.8 438.8,139.8 265.6,239.8 265.6,258.3 314.4,278.2 377.5,375.2" fill="url(#gr)"/>

<polygon points="265.6,239.8 438.8,139.8 265.6,39.8 160.9,100.2 211.6,167.8 261.2,200.6 260.7,237.0" fill="url(#gt)"/>

<polygon points="73.2,184.2 73.2,384.2 246.4,484.2 246.4,302.7 241.2,300.6 241.5,281.4" fill="url(#gl)"/>

<polygon points="246.4,484.2 358.3,419.6 295.2,322.6 246.4,302.7" fill="url(#gr)"/>

<polygon points="73.2,184.2 241.5,281.4 242.0,245.0 192.4,212.2 141.7,144.6" fill="url(#gt)"/>

<polygon points="265.6,239.8 260.7,237.0 260.4,256.2 265.6,258.3" fill="url(#sa)"/>

<polygon points="438.8,339.8 438.8,139.8 265.6,239.8 265.6,258.3 314.4,278.2 377.5,375.2" fill="url(#sa)"/>

<polygon points="265.6,239.8 438.8,139.8 265.6,39.8 160.9,100.2 211.6,167.8 261.2,200.6 260.7,237.0" fill="url(#sa)"/>

<polygon points="73.2,184.2 73.2,384.2 246.4,484.2 246.4,302.7 241.2,300.6 241.5,281.4" fill="url(#sb)"/>

<polygon points="246.4,484.2 358.3,419.6 295.2,322.6 246.4,302.7" fill="url(#sb)"/>

<polygon points="73.2,184.2 241.5,281.4 242.0,245.0 192.4,212.2 141.7,144.6" fill="url(#sb)"/>

<line x1="160.9" y1="100.2" x2="265.6" y2="39.8" stroke="#8A86A0" stroke-width="3" stroke-linecap="round" opacity="0.55"/>
<line x1="73.2" y1="184.2" x2="141.7" y2="144.6" stroke="#8A86A0" stroke-width="3" stroke-linecap="round" opacity="0.55"/>
<line x1="265.6" y1="39.8" x2="438.8" y2="139.8" stroke="#8A86A0" stroke-width="3" stroke-linecap="round" opacity="0.45"/>
<line x1="73.2" y1="184.2" x2="241.5" y2="281.4" stroke="#8A86A0" stroke-width="3" stroke-linecap="round" opacity="0.35"/>
<line x1="265.6" y1="239.8" x2="438.8" y2="139.8" stroke="#8A86A0" stroke-width="3" stroke-linecap="round" opacity="0.3"/>
<line x1="73.2" y1="184.2" x2="73.2" y2="384.2" stroke="#8A86A0" stroke-width="3" stroke-linecap="round" opacity="0.22"/>
<line x1="265.6" y1="239.8" x2="265.6" y2="258.3" stroke="#8A86A0" stroke-width="3" stroke-linecap="round" opacity="0.22"/>
<line x1="246.4" y1="302.7" x2="246.4" y2="484.2" stroke="#8A86A0" stroke-width="3" stroke-linecap="round" opacity="0.22"/>
<polygon points="265.6,39.8 160.9,100.2 211.6,167.8 261.2,200.6 260.7,237.0 260.4,256.2 265.6,258.3 314.4,278.2 377.5,375.2 438.8,339.8 438.8,139.8 265.6,39.8" fill="none" stroke="#FF7445" stroke-width="8" stroke-linejoin="round" opacity="0.35" filter="url(#b3)"/>
<polygon points="265.6,39.8 160.9,100.2 211.6,167.8 261.2,200.6 260.7,237.0 260.4,256.2 265.6,258.3 314.4,278.2 377.5,375.2 438.8,339.8 438.8,139.8 265.6,39.8" fill="none" stroke="url(#rimg)" stroke-width="3" stroke-linejoin="round"/>
<polygon points="242.0,245.0 192.4,212.2 141.7,144.6 73.2,184.2 73.2,384.2 246.4,484.2 358.3,419.6 295.2,322.6 246.4,302.7 241.2,300.6 241.5,281.4 242.0,245.0" fill="none" stroke="#FF7445" stroke-width="8" stroke-linejoin="round" opacity="0.35" filter="url(#b3)"/>
<polygon points="242.0,245.0 192.4,212.2 141.7,144.6 73.2,184.2 73.2,384.2 246.4,484.2 358.3,419.6 295.2,322.6 246.4,302.7 241.2,300.6 241.5,281.4 242.0,245.0" fill="none" stroke="url(#rimg)" stroke-width="3" stroke-linejoin="round"/>
<line x1="73.2" y1="184.2" x2="241.5" y2="281.4" stroke="#FF7445" stroke-width="2" stroke-linecap="round" opacity="0.45"/>
<line x1="265.6" y1="239.8" x2="438.8" y2="139.8" stroke="#FF7445" stroke-width="2" stroke-linecap="round" opacity="0.45"/>
<line x1="265.6" y1="239.8" x2="265.6" y2="258.3" stroke="#FF7445" stroke-width="2" stroke-linecap="round" opacity="0.45"/>
<line x1="246.4" y1="302.7" x2="246.4" y2="484.2" stroke="#FF7445" stroke-width="2" stroke-linecap="round" opacity="0.45"/>
<polyline points="160.6,99.8 211.6,167.8 261.2,200.6 260.4,256.2 314.4,278.2 377.8,375.7" fill="none" stroke="#FFD6BF" stroke-width="3" stroke-linejoin="miter" opacity="0.95"/>
<polyline points="141.4,144.2 192.4,212.2 242.0,245.0 241.2,300.6 295.2,322.6 358.6,420.1" fill="none" stroke="#FFD6BF" stroke-width="3" stroke-linejoin="miter" opacity="0.95"/>
<ellipse cx="256.0" cy="262.0" rx="58" ry="16" transform="rotate(53.1 256.0 262.0)" fill="#FFFFFF" filter="url(#b8)"/>
<ellipse cx="256.0" cy="262.0" rx="26" ry="6" transform="rotate(53.1 256.0 262.0)" fill="#FFFFFF"/>
</g>
</svg>